# Made with Blockbench
# Exported with IIToolkit Plugin
mtllib block_pen.mtl


o cube
v 0.5 1 0.5
v 0.5 1 -0.5
v 0.5 0 0.5
v 0.5 0 -0.5
v -0.5 1 -0.5
v -0.5 1 0.5
v -0.5 0 -0.5
v -0.5 0 0.5
vt 0 1
vt 1 1
vt 1 0
vt 0 0
vt 0 1
vt 1 1
vt 1 0
vt 0 0
vt 0 1
vt 1 1
vt 1 0
vt 0 0
vt 0 1
vt 1 1
vt 1 0
vt 0 0
vt 0 1
vt 1 1
vt 1 0
vt 0 0
vt 0 1
vt 1 1
vt 1 0
vt 0 0
vn 0 0 -1
vn 1 0 0
vn 0 0 1
vn -1 0 0
vn 0 1 0
vn 0 -1 0
usemtl brick
f 4/4/1 7/3/1 5/2/1 2/1/1
f 3/8/2 4/7/2 2/6/2 1/5/2
f 8/12/3 3/11/3 1/10/3 6/9/3
f 7/16/4 8/15/4 6/14/4 5/13/4
f 6/20/5 1/19/5 2/18/5 5/17/5
f 7/24/6 4/23/6 3/22/6 8/21/6
o POINTFEFORM
v -0.5 0.6875 0.1875
v -0.5 0.6875 -0.1875
v -0.5 0.3125 0.1875
v -0.5 0.3125 -0.1875
v -0.5625 0.625 0.125
v -0.5625 0.625 -0.125
v -0.5625 0.375 0.125
v -0.5625 0.375 -0.125
vt 0.6875 0.9375
vt 0.3125 0.9375
vt 0.375 0.8491124999999999
vt 0.625 0.8491124999999999
vt 0.3125 0.03661249999999994
vt 0.6875 0.03661249999999994
vt 0.625 0.125
vt 0.375 0.125
vt 0.9633875000000001 0.3125
vt 0.9633875000000001 0.6875
vt 0.875 0.625
vt 0.875 0.375
vt 0.1508875 0.375
vt 0.1508875 0.625
vt 0.0625 0.6875
vt 0.0625 0.3125
vn -0.7071067811865476 0.7071067811865476 0
vn -0.7071067811865476 -0.7071067811865476 0
vn -0.7071067811865476 0 0.7071067811865476
vn -0.7071067811865476 0 -0.7071067811865476
usemtl brick
f 9/25/7 10/26/7 14/27/7 13/28/7
f 12/29/8 11/30/8 15/31/8 16/32/8
f 11/33/9 9/34/9 13/35/9 15/36/9
f 16/37/10 14/38/10 10/39/10 12/40/10
o smoke
v -0.53125 0.625 0.125
v -0.53125 0.625 -0.125
v -0.53125 0.375 0.125
v -0.53125 0.375 -0.125
v -0.78125 0.75 0.25
v -0.78125 0.75 -0.25
v -0.78125 0.25 0.25
v -0.78125 0.25 -0.25
vt 0.25 0
vt 0.75 0
vt 1 1
vt 0 1
vt 0.75 0
vt 0.25 0
vt 0 1
vt 1 1
vt 0.25 0
vt 0.75 0
vt 1 1
vt 0 1
vt 1 1
vt 0 1
vt 0.25 0
vt 0.75 0
vn 0.44721359549995804 0.8944271909999161 0
vn 0.44721359549995804 -0.8944271909999161 0
vn 0.44721359549995804 0 0.8944271909999161
vn 0.44721359549995804 0 -0.8944271909999161
usemtl 3partpenparticle_smoke_anim
f 17/41/11 18/42/11 22/43/11 21/44/11
f 20/45/12 19/46/12 23/47/12 24/48/12
f 19/49/13 17/50/13 21/51/13 23/52/13
f 24/53/14 22/54/14 18/55/14 20/56/14
o HOLES
v -0.5 0.6875 0.1875
v -0.5 0.6875 -0.1875
v -0.5 0.3125 0.1875
v -0.5 0.3125 -0.1875
v -0.5625 0.625 0.125
v -0.5625 0.625 -0.125
v -0.5625 0.375 0.125
v -0.5625 0.375 -0.125
vt 0.875 0.125
vt 0.875 0.875
vt 0.125 0.875
vt 0.125 0.125
vt 0.75 0.25
vt 0.75 0.75
vt 0.25 0.75
vt 0.25 0.25
vn 1 0 0
vn -1 0 0
usemtl 3partpenparticle
f 28/57/15 26/58/15 25/59/15 27/60/15
f 31/61/16 29/62/16 30/63/16 32/64/16
o HOLES
v -0.50625 0.6875 0.1875
v -0.50625 0.6875 -0.1875
v -0.50625 0.3125 0.1875
v -0.50625 0.3125 -0.1875
vt 0.6875 0.3125
vt 0.6875 0.6875
vt 0.3125 0.6875
vt 0.3125 0.3125
vn 1 0 0
usemtl brick
f 36/65/17 34/66/17 33/67/17 35/68/17