# Made with Blockbench
# Exported with IIToolkit Plugin
mtllib waterhit.mtl


o cube
v 0.5 0.4375 0.5
v 0.5 0.4375 -0.5
v 0.125 0 0.125
v 0.125 0 -0.125
v -0.5 0.4375 0.5
v -0.5 0.4375 -0.5
v -0.125 0 0.125
v -0.125 0 -0.125
vt 0.625 0.4375
vt 1 1
vt 0 1
vt 0.375 0.4375
vt 0.625 0.4375
vt 1 1
vt 0 1
vt 0.375 0.4375
vt 0.625 0.4375
vt 1 1
vt 0 1
vt 0.375 0.4375
vt 0.625 0.4375
vt 1 1
vt 0 1
vt 0.375 0.4375
vn 0.7592566023652966 -0.6507913734559685 0
vn -0.7592566023652966 -0.6507913734559685 0
vn 0 -0.6507913734559685 0.7592566023652966
vn 0 -0.6507913734559685 -0.7592566023652966
usemtl watersplash_animated
f 4/1/1 2/2/1 1/3/1 3/4/1
f 7/5/2 5/6/2 6/7/2 8/8/2
f 3/9/3 1/10/3 5/11/3 7/12/3
f 8/13/4 6/14/4 2/15/4 4/16/4
o SPL1
v 0.1875 0.5 0.1875
v 0.1875 0.5 -0.1875
v 0.125 0 0.125
v 0.125 0 -0.125
v -0.1875 0.5 0.1875
v -0.1875 0.5 -0.1875
v -0.125 0 0.125
v -0.125 0 -0.125
vt 0.6875 0.5
vt 0.75 1
vt 0.375 1
vt 0.4375 0.5
vt 0.375 0.5
vt 0.4375 1
vt 0.0625 1
vt 0.125 0.5
vt 0.8125 0.5
vt 0.875 1
vt 0.5 1
vt 0.5625 0.5
vt 0.5 0.5
vt 0.5625 1
vt 0.1875 1
vt 0.25 0.5
vn 0.9922778767136677 -0.12403473458920847 0
vn -0.9922778767136677 -0.12403473458920847 0
vn 0 -0.12403473458920847 0.9922778767136677
vn 0 -0.12403473458920847 -0.9922778767136677
usemtl watersplash_animated
f 12/17/5 10/18/5 9/19/5 11/20/5
f 15/21/6 13/22/6 14/23/6 16/24/6
f 11/25/7 9/26/7 13/27/7 15/28/7
f 16/29/8 14/30/8 10/31/8 12/32/8
o SPL2
v 0.125 0.75 0.125
v 0.125 0.75 -0.125
v 0.125 0 0.125
v 0.125 0 -0.125
v -0.125 0.75 0.125
v -0.125 0.75 -0.125
v -0.125 0 0.125
v -0.125 0 -0.125
vt 0.5 0.25
vt 0.5 1
vt 0.25 1
vt 0.25 0.25
vt 0.25 0.25
vt 0.25 1
vt 0 1
vt 0 0.25
vt 1 0.25
vt 1 1
vt 0.75 1
vt 0.75 0.25
vt 0.75 0.25
vt 0.75 1
vt 0.5 1
vt 0.5 0.25
vn 1 0 0
vn -1 0 0
vn 0 0 1
vn 0 0 -1
usemtl watersplash_animated
f 20/33/9 18/34/9 17/35/9 19/36/9
f 23/37/10 21/38/10 22/39/10 24/40/10
f 19/41/11 17/42/11 21/43/11 23/44/11
f 24/45/12 22/46/12 18/47/12 20/48/12